<svg width="75" height="75" viewBox="0 0 75 75" fill="none" xmlns="http://www.w3.org/2000/svg">
<g clip-path="url(#clip0_105_669)">
<rect width="75" height="75" rx="12" fill="#1B1B1B"/>
<path d="M35.9844 68.0803C35.996 68.6699 36.1915 69.2413 36.5436 69.7151C36.8957 70.189 37.3871 70.5418 37.9495 70.7247C39.3932 71.3889 40.9102 71.8819 42.4691 72.1938C42.6377 72.2176 42.7998 72.2748 42.946 72.362C43.0921 72.4492 43.2192 72.5646 43.3199 72.7015C43.4206 72.8384 43.4928 72.9939 43.5323 73.159C43.5718 73.3242 43.5778 73.4955 43.5499 73.6629C43.5835 74.2828 43.5835 74.904 43.5499 75.5238H37.5565H31.3665H24.6853H18.6918C18.6186 74.9056 18.6186 74.2811 18.6918 73.6629C18.6558 73.3419 18.7346 73.0185 18.9143 72.7498C19.0941 72.481 19.3632 72.2841 19.6744 72.1938C21.2861 71.932 22.8665 71.5053 24.3905 70.9206C25.0235 70.7524 25.5853 70.3852 25.9924 69.8736C26.3994 69.3619 26.6302 68.7331 26.6504 68.0803V4.90901C26.7617 4.00492 26.6885 3.08772 26.4353 2.21252C26.182 1.33733 25.7539 0.522208 25.1766 -0.183867C23.3381 -1.25511 21.2002 -1.70195 19.0848 -1.45709C18.8093 -1.40325 18.524 -1.42901 18.2626 -1.53133C18.0012 -1.63366 17.7746 -1.80829 17.6095 -2.03467C17.4443 -2.26106 17.3474 -2.52976 17.3303 -2.80916C17.3132 -3.08856 17.3765 -3.36703 17.5128 -3.61177C17.4763 -4.13348 17.4763 -4.6571 17.5128 -5.17881H21.8359H26.7486L31.6613 -6.15821C32.6495 -6.47395 33.672 -6.67122 34.7071 -6.74585C35.4932 -6.74585 35.9844 -6.74585 36.1809 -6.74585C36.3096 -6.33113 36.3096 -5.88735 36.1809 -5.47263C36.2619 -3.9393 36.2619 -2.40278 36.1809 -0.869444C36.0641 1.18565 36.0641 3.24568 36.1809 5.30077V47.5129L53.8665 31.8425C54.2098 31.6994 54.4991 31.4519 54.6931 31.1354C54.8872 30.8189 54.9761 30.4494 54.9473 30.0796C54.9485 29.836 54.8586 29.6006 54.6951 29.4195C54.5316 29.2384 54.3062 29.1246 54.063 29.1002L52.098 28.6105C51.3735 28.5115 50.6738 28.279 50.0346 27.9249C49.7418 27.8165 49.4947 27.612 49.334 27.345C49.1733 27.078 49.1085 26.7644 49.1504 26.4558C49.0734 26.002 49.0734 25.5385 49.1504 25.0847H53.0805H59.7617H66.1482H69.7836C69.7594 25.247 69.7594 25.412 69.7836 25.5744C69.8296 25.8664 69.8296 26.1638 69.7836 26.4558C69.9203 26.9027 69.9203 27.3801 69.7836 27.827C69.6592 28.0225 69.4837 28.1806 69.276 28.2841C69.0682 28.3877 68.8361 28.4328 68.6045 28.4146C67.0893 28.4384 65.591 28.7371 64.1831 29.2961C63.304 29.5478 62.4737 29.9451 61.7268 30.4714L45.3185 45.1624L64.9692 67.2968C66.1554 68.8553 67.7074 70.0997 69.4888 70.9206C70.9003 71.3654 72.3463 71.693 73.812 71.9C74.598 71.9 74.991 72.3897 74.991 73.2712C75.0215 73.6296 75.0215 73.99 74.991 74.3485C75.0551 74.7376 75.0551 75.1346 74.991 75.5238C69.6853 75.5238 64.1831 75.5238 58.4844 75.5238L36.1809 49.2759L35.9844 68.0803Z" fill="#2C2C2C"/>
<path d="M4.04232 36.1723C4.02574 34.8192 4.27761 33.4765 4.78306 32.2233C5.28852 30.9701 6.03732 29.8318 6.9853 28.8756C7.95313 27.8709 9.12187 27.086 10.4136 26.5734C11.7054 26.0608 13.0904 25.8322 14.4765 25.9029C15.8012 25.8906 17.1121 26.175 18.3149 26.7358C19.5177 27.2965 20.5825 28.1196 21.4327 29.1459C22.3806 30.102 23.1294 31.2403 23.6349 32.4935C24.1404 33.7467 24.3922 35.0895 24.3756 36.4426C24.4562 37.864 24.2354 39.2865 23.7278 40.6148C23.2203 41.943 22.4378 43.1465 21.4327 44.1447C20.553 45.1255 19.4793 45.9088 18.2811 46.4442C17.0828 46.9795 15.7867 47.2549 14.4765 47.2525C13.0826 47.2888 11.6965 47.0311 10.4067 46.496C9.11685 45.9609 7.95161 45.1601 6.9853 44.1447C5.94452 43.1162 5.14114 41.8685 4.63245 40.4905C4.12375 39.1125 3.92226 37.638 4.04232 36.1723Z" fill="#EDEEF9"/>
<path d="M42.0131 -36.4887C41.3945 -36.3167 40.7404 -36.3167 40.1218 -36.4887C40.0295 -36.8866 40.0295 -37.3002 40.1218 -37.6981C39.9225 -39.5562 39.3542 -41.3564 38.4498 -42.9942C37.5453 -44.632 36.3229 -46.0748 34.8533 -47.2388C31.7964 -49.1901 28.2168 -50.174 24.5865 -50.0607C21.5713 -50.1199 18.6229 -49.1739 16.2108 -47.3732C15.0389 -46.5345 14.093 -45.4213 13.4568 -44.1322C12.8206 -42.843 12.5137 -41.4177 12.5634 -39.9825C12.5415 -38.6503 12.8215 -37.3304 13.3828 -36.1207C13.9441 -34.911 14.7722 -33.8426 15.8056 -32.9949C19.4873 -30.4375 23.6076 -28.5704 27.9637 -27.4855L36.6095 -24.2605C39.0635 -23.1693 41.3401 -21.72 43.364 -19.9604C45.2606 -18.226 46.778 -16.1219 47.822 -13.7791C48.7349 -11.009 49.057 -8.07994 48.7676 -5.17902C48.8251 -2.41922 48.3196 0.323528 47.2816 2.88356C46.2461 5.45513 44.6281 7.75437 42.5535 9.60239C40.2647 11.7181 37.547 13.3218 34.5831 14.3056C30.941 15.578 27.0939 16.1703 23.2355 16.0524C19.3336 16.0084 15.4443 15.6035 11.6178 14.8431C7.55704 14.1121 3.63676 12.7517 0 10.8118C0 7.98986 0 5.03359 0 1.94293C0 -1.14772 0 -4.10401 0 -7.32904H1.62109C2.55407 -7.54662 3.525 -7.54662 4.45798 -7.32904C4.71276 -7.03953 4.88477 -6.68731 4.95605 -6.30913C5.02734 -5.93095 4.99529 -5.54068 4.86326 -5.17902C4.96916 -3.10731 5.4897 -1.07747 6.39438 0.791556C7.29907 2.66058 8.56969 4.33118 10.1318 5.70547C13.9028 8.81825 18.761 10.3163 23.6408 9.87113C27.2654 10.1279 30.8618 9.07854 33.7726 6.91486C34.9751 5.9211 35.9301 4.664 36.5629 3.24196C37.1957 1.81991 37.4891 0.271497 37.42 -1.2821C37.4921 -2.844 37.1717 -4.39915 36.4877 -5.80689C35.8036 -7.21462 34.7776 -8.43054 33.5024 -9.34469C29.9833 -11.6636 26.1036 -13.3888 22.0197 -14.451C16.5187 -15.8834 11.4003 -18.498 7.0247 -22.1104C5.16473 -23.8072 3.70398 -25.8912 2.7466 -28.2139C1.78922 -30.5367 1.35879 -33.0409 1.486 -35.5481C1.39544 -38.4107 1.9493 -41.2572 3.10708 -43.8794C4.158 -46.3307 5.72408 -48.53 7.70015 -50.3295C9.74514 -52.294 12.1853 -53.8053 14.8599 -54.7639C17.8414 -55.8653 21.001 -56.4119 24.1812 -56.3764C28.3448 -56.4258 32.4912 -55.8365 36.4744 -54.6295C39.6402 -53.8258 42.684 -52.6056 45.5255 -51.0014C45.5255 -50.1951 45.5255 -49.1201 45.5255 -47.9107C45.5255 -46.7013 45.5255 -45.3575 45.5255 -44.0138V-39.9825C45.5255 -38.6387 45.5255 -37.4293 45.5255 -36.3543L42.0131 -36.4887Z" fill="#EDEEF9"/>
<path d="M48.6177 67.5631C48.6293 68.1527 48.8248 68.724 49.1769 69.1979C49.529 69.6717 50.0204 70.0246 50.5828 70.2075C52.0265 70.8716 53.5435 71.3647 55.1024 71.6766C55.271 71.7004 55.4332 71.7576 55.5793 71.8448C55.7254 71.9319 55.8525 72.0474 55.9532 72.1843C56.0539 72.3211 56.1261 72.4767 56.1656 72.6418C56.2051 72.8069 56.2111 72.9782 56.1832 73.1457C56.2168 73.7655 56.2168 74.3867 56.1832 75.0065H50.1898H43.9998H37.3186H31.3251C31.2519 74.3884 31.2519 73.7638 31.3251 73.1457C31.2891 72.8247 31.3679 72.5013 31.5476 72.2325C31.7274 71.9637 31.9965 71.7669 32.3077 71.6766C33.9194 71.4147 35.4998 70.9881 37.0238 70.4033C37.6568 70.2351 38.2186 69.868 38.6257 69.3563C39.0328 68.8447 39.2635 68.2158 39.2837 67.5631V4.39177C39.395 3.48768 39.3218 2.57048 39.0686 1.69528C38.8153 0.820087 38.3872 0.00496578 37.8099 -0.701109C35.9714 -1.77236 33.8335 -2.21919 31.7181 -1.97433C31.4426 -1.92049 31.1573 -1.94625 30.8959 -2.04858C30.6345 -2.1509 30.4079 -2.32553 30.2428 -2.55192C30.0776 -2.7783 29.9807 -3.047 29.9636 -3.3264C29.9465 -3.6058 30.0098 -3.88427 30.1461 -4.12901C30.1096 -4.65073 30.1096 -5.17434 30.1461 -5.69605H34.4692H39.3819L44.2946 -6.67545C45.2828 -6.99119 46.3053 -7.18847 47.3404 -7.26309C48.1265 -7.26309 48.6177 -7.26309 48.8142 -7.26309C48.9429 -6.84837 48.9429 -6.40459 48.8142 -5.98987C48.8952 -4.45654 48.8952 -2.92002 48.8142 -1.38669C48.6974 0.668407 48.6974 2.72843 48.8142 4.78353V46.9957L66.4998 31.3253C66.8431 31.1821 67.1324 30.9347 67.3264 30.6182C67.5205 30.3017 67.6094 29.9322 67.5806 29.5624C67.5818 29.3187 67.4919 29.0834 67.3284 28.9023C67.1649 28.7212 66.9395 28.6073 66.6963 28.583L64.7313 28.0933C64.0068 27.9943 63.3071 27.7618 62.6679 27.4077C62.3751 27.2993 62.128 27.0947 61.9673 26.8277C61.8066 26.5607 61.7418 26.2472 61.7837 25.9386C61.7067 25.4847 61.7067 25.0212 61.7837 24.5674H65.7138H72.395H78.7815H82.4169C82.3927 24.7298 82.3927 24.8948 82.4169 25.0571C82.4629 25.3492 82.4629 25.6466 82.4169 25.9386C82.5536 26.3855 82.5536 26.8628 82.4169 27.3097C82.2925 27.5053 82.117 27.6633 81.9093 27.7669C81.7015 27.8704 81.4694 27.9155 81.2378 27.8974C79.7226 27.9211 78.2243 28.2198 76.8164 28.7788C75.9373 29.0305 75.107 29.4278 74.3601 29.9541L57.9518 44.6451L77.6025 66.7796C78.7887 68.3381 80.3407 69.5825 82.1221 70.4033C83.5336 70.8482 84.9796 71.1758 86.4453 71.3828C87.2313 71.3828 87.6243 71.8724 87.6243 72.7539C87.6548 73.1124 87.6548 73.4728 87.6243 73.8313C87.6884 74.2204 87.6884 74.6174 87.6243 75.0065C82.3186 75.0065 76.8164 75.0065 71.1177 75.0065L48.8142 48.7586L48.6177 67.5631Z" fill="#EDEEF9"/>
</g>
<defs>
<clipPath id="clip0_105_669">
<rect width="75" height="75" rx="12" fill="white"/>
</clipPath>
</defs>
</svg>
